<?xml version="1.0" encoding="utf-8"?>
<!-- Generator: Adobe Illustrator 19.2.0, SVG Export Plug-In . SVG Version: 6.00 Build 0)  -->
<svg version="1.1" id="Layer_1" xmlns="http://www.w3.org/2000/svg" xmlns:xlink="http://www.w3.org/1999/xlink" x="0px" y="0px"
	 viewBox="0 0 3047.6 1900.5" style="enable-background:new 0 0 3047.6 1900.5;" xml:space="preserve">
<style type="text/css">
	.st0{fill:none;stroke:#F1F1F1;stroke-width:6;stroke-linecap:round;stroke-linejoin:round;stroke-miterlimit:10;}
	.st1{fill:none;stroke:#F1F1F1;stroke-miterlimit:10;}
</style>
<g>
	<path class="st0" d="M590.3,59l-14.5-2.8c-3-0.6-5-3.5-4.4-6.5l2.8-14.5c0.6-3,3.5-5,6.5-4.4l14.5,2.8c3,0.6,5,3.5,4.4,6.5
		l-2.8,14.5C596.2,57.6,593.3,59.6,590.3,59z"/>
	<path class="st0" d="M96.9,127.4l-7.6,1.3c-3,0.5-5.9-1.5-6.5-4.5l-5.3-30.1c-0.5-3,1.5-5.9,4.5-6.5l7.6-1.3c3-0.5,5.9,1.5,6.5,4.5
		l5.3,30.1C102,124,100,126.9,96.9,127.4z"/>
	<circle class="st0" cx="706.7" cy="263.5" r="10.9"/>
	<path class="st0" d="M210,220c6.2-8.3,18-10,26.3-3.7s10,18,3.7,26.3"/>
	<polygon class="st0" points="756.3,35.3 737,73.1 768.4,76.4 	"/>
	<polygon class="st0" points="472,246.6 443.9,256.2 464.2,280.4 	"/>
	<polyline class="st0" points="331.7,73 367,73 367,39.7 	"/>
	<path class="st1" d="M487.7,134.1l-6.8,4.4c-1.4,0.9-3.4,0.5-4.3-0.9l-4.4-6.8c-0.9-1.4-0.5-3.4,0.9-4.3l6.8-4.4
		c1.4-0.9,3.4-0.5,4.3,0.9l4.4,6.8C489.5,131.2,489.1,133.2,487.7,134.1z"/>
	<circle class="st1" cx="27" cy="280.4" r="7.4"/>
	<line class="st0" x1="667.7" y1="205.7" x2="642.3" y2="179"/>
	<line class="st0" x1="180.3" y1="29" x2="209.7" y2="3"/>
	<path class="st0" d="M1405.3,59l-14.5-2.8c-3-0.6-5-3.5-4.4-6.5l2.8-14.5c0.6-3,3.5-5,6.5-4.4l14.5,2.8c3,0.6,5,3.5,4.4,6.5
		l-2.8,14.5C1411.2,57.6,1408.3,59.6,1405.3,59z"/>
	<path class="st0" d="M911.9,127.4l-7.6,1.3c-3,0.5-5.9-1.5-6.5-4.5l-5.3-30.1c-0.5-3,1.5-5.9,4.5-6.5l7.6-1.3
		c3-0.5,5.9,1.5,6.5,4.5l5.3,30.1C917,124,915,126.9,911.9,127.4z"/>
	<circle class="st0" cx="1521.6" cy="263.5" r="10.9"/>
	<path class="st0" d="M1025,220c6.2-8.3,18-10,26.3-3.7s10,18,3.7,26.3"/>
	<polygon class="st0" points="1571.3,35.3 1552,73.1 1583.4,76.4 	"/>
	<polygon class="st0" points="1287,246.6 1258.9,256.2 1279.2,280.4 	"/>
	<polyline class="st0" points="1146.7,73 1182,73 1182,39.7 	"/>
	<path class="st1" d="M1302.7,134.1l-6.8,4.4c-1.4,0.9-3.4,0.5-4.3-0.9l-4.4-6.8c-0.9-1.4-0.5-3.4,0.9-4.3l6.8-4.4
		c1.4-0.9,3.4-0.5,4.3,0.9l4.4,6.8C1304.5,131.2,1304.1,133.2,1302.7,134.1z"/>
	<circle class="st1" cx="842" cy="280.4" r="7.4"/>
	<line class="st0" x1="1482.7" y1="205.7" x2="1457.3" y2="179"/>
	<line class="st0" x1="995.3" y1="29" x2="1024.7" y2="3"/>
	<path class="st0" d="M2220.2,59l-14.5-2.8c-3-0.6-5-3.5-4.4-6.5l2.8-14.5c0.6-3,3.5-5,6.5-4.4l14.5,2.8c3,0.6,5,3.5,4.4,6.5
		l-2.8,14.5C2226.2,57.6,2223.3,59.6,2220.2,59z"/>
	<path class="st0" d="M1726.9,127.4l-7.6,1.3c-3,0.5-5.9-1.5-6.5-4.5l-5.3-30.1c-0.5-3,1.5-5.9,4.5-6.5l7.6-1.3
		c3-0.5,5.9,1.5,6.5,4.5l5.3,30.1C1732,124,1729.9,126.9,1726.9,127.4z"/>
	<circle class="st0" cx="2336.6" cy="263.5" r="10.9"/>
	<path class="st0" d="M1840,220c6.2-8.3,18-10,26.3-3.7s10,18,3.7,26.3"/>
	<polygon class="st0" points="2386.3,35.3 2367,73.1 2398.4,76.4 	"/>
	<polygon class="st0" points="2101.9,246.6 2073.9,256.2 2094.2,280.4 	"/>
	<polyline class="st0" points="1961.6,73 1997,73 1997,39.7 	"/>
	<path class="st1" d="M2117.7,134.1l-6.8,4.4c-1.4,0.9-3.4,0.5-4.3-0.9l-4.4-6.8c-0.9-1.4-0.5-3.4,0.9-4.3l6.8-4.4
		c1.4-0.9,3.4-0.5,4.3,0.9l4.4,6.8C2119.5,131.2,2119.1,133.2,2117.7,134.1z"/>
	<circle class="st1" cx="1657" cy="280.4" r="7.4"/>
	<line class="st0" x1="2297.6" y1="205.7" x2="2272.3" y2="179"/>
	<line class="st0" x1="1810.3" y1="29" x2="1839.6" y2="3"/>
	<path class="st0" d="M3035.2,59l-14.5-2.8c-3-0.6-5-3.5-4.4-6.5l2.8-14.5c0.6-3,3.5-5,6.5-4.4l14.5,2.8c3,0.6,5,3.5,4.4,6.5
		l-2.8,14.5C3041.2,57.6,3038.2,59.6,3035.2,59z"/>
	<path class="st0" d="M2541.9,127.4l-7.6,1.3c-3,0.5-5.9-1.5-6.5-4.5l-5.3-30.1c-0.5-3,1.5-5.9,4.5-6.5l7.6-1.3
		c3-0.5,5.9,1.5,6.5,4.5l5.3,30.1C2547,124,2544.9,126.9,2541.9,127.4z"/>
	<path class="st0" d="M2655,220c6.2-8.3,18-10,26.3-3.7s10,18,3.7,26.3"/>
	<polygon class="st0" points="2916.9,246.6 2888.9,256.2 2909.2,280.4 	"/>
	<polyline class="st0" points="2776.6,73 2812,73 2812,39.7 	"/>
	<path class="st1" d="M2932.6,134.1l-6.8,4.4c-1.4,0.9-3.4,0.5-4.3-0.9l-4.4-6.8c-0.9-1.4-0.5-3.4,0.9-4.3l6.8-4.4
		c1.4-0.9,3.4-0.5,4.3,0.9l4.4,6.8C2934.5,131.2,2934.1,133.2,2932.6,134.1z"/>
	<circle class="st1" cx="2472" cy="280.4" r="7.4"/>
	<line class="st0" x1="2625.3" y1="29" x2="2654.6" y2="3"/>
	<path class="st0" d="M57,492.2l-11.7,8.9c-2.4,1.9-5.9,1.4-7.8-1.1l-8.9-11.7c-1.9-2.4-1.4-5.9,1.1-7.8l11.7-8.9
		c2.4-1.9,5.9-1.4,7.8,1.1l8.9,11.7C59.9,486.9,59.4,490.4,57,492.2z"/>
	<path class="st0" d="M590.3,865.3l-14.5-2.8c-3-0.6-5-3.5-4.4-6.5l2.8-14.5c0.6-3,3.5-5,6.5-4.4l14.5,2.8c3,0.6,5,3.5,4.4,6.5
		l-2.8,14.5C596.2,863.9,593.3,865.9,590.3,865.3z"/>
	<path class="st0" d="M96.9,933.7l-7.6,1.3c-3,0.5-5.9-1.5-6.5-4.5l-5.3-30.1c-0.5-3,1.5-5.9,4.5-6.5l7.6-1.3c3-0.5,5.9,1.5,6.5,4.5
		l5.3,30.1C102,930.3,100,933.2,96.9,933.7z"/>
	<circle class="st0" cx="706.7" cy="1069.9" r="10.9"/>
	<circle class="st0" cx="258.2" cy="396.4" r="19"/>
	<path class="st0" d="M739.9,697.4c-3.2-9.9,2.2-20.5,12.1-23.7s20.5,2.2,23.7,12.1"/>
	<path class="st0" d="M210,1026.3c6.2-8.3,18-10,26.3-3.7c8.3,6.2,10,18,3.7,26.3"/>
	<polygon class="st0" points="474.7,607.9 460.1,634.4 441.2,610.7 455.8,584.2 	"/>
	<polygon class="st0" points="137,692 169,664 141,649.3 	"/>
	<polygon class="st0" points="756.3,841.6 737,879.5 768.4,882.7 	"/>
	<path class="st1" d="M569.8,711.9l7.2,9.6c1.2,1.6,3.8,1.2,4.4-0.7l4-11.7c0.6-1.8-1-3.6-2.8-3.3l-11.1,2.1
		C569.5,708.2,568.7,710.4,569.8,711.9z"/>
	<polygon class="st0" points="472,1053 443.9,1062.5 464.2,1086.7 	"/>
	<polyline class="st0" points="331.7,879.3 367,879.3 367,846 	"/>
	<polygon class="st0" points="663.7,434 689,434 689,394 	"/>
	<line class="st0" x1="642.3" y1="552" x2="650.3" y2="593.3"/>
	<line class="st0" x1="423.7" y1="434" x2="458" y2="456.7"/>
	<path class="st1" d="M339.9,730.7l-7.5-3.1c-1.6-0.7-2.4-2.5-1.7-4.1l3.1-7.5c0.7-1.6,2.5-2.4,4.1-1.7l7.5,3.1
		c1.6,0.7,2.4,2.5,1.7,4.1l-3.1,7.5C343.3,730.6,341.5,731.3,339.9,730.7z"/>
	<path class="st1" d="M487.7,940.5l-6.8,4.4c-1.4,0.9-3.4,0.5-4.3-0.9l-4.4-6.8c-0.9-1.4-0.5-3.4,0.9-4.3l6.8-4.4
		c1.4-0.9,3.4-0.5,4.3,0.9l4.4,6.8C489.5,937.6,489.1,939.5,487.7,940.5z"/>
	<circle class="st1" cx="284.7" cy="541.4" r="7.4"/>
	<circle class="st1" cx="27" cy="1086.7" r="7.4"/>
	<line class="st0" x1="667.7" y1="1012" x2="642.3" y2="985.3"/>
	<line class="st0" x1="3" y1="616" x2="27" y2="612"/>
	<line class="st0" x1="122.3" y1="377.4" x2="122.3" y2="353.3"/>
	<line class="st0" x1="180.3" y1="835.3" x2="209.7" y2="809.3"/>
	<path class="st0" d="M872,492.2l-11.7,8.9c-2.4,1.9-5.9,1.4-7.8-1.1l-8.9-11.7c-1.9-2.4-1.4-5.9,1.1-7.8l11.7-8.9
		c2.4-1.9,5.9-1.4,7.8,1.1l8.9,11.7C874.9,486.9,874.4,490.4,872,492.2z"/>
	<path class="st0" d="M1405.3,865.3l-14.5-2.8c-3-0.6-5-3.5-4.4-6.5l2.8-14.5c0.6-3,3.5-5,6.5-4.4l14.5,2.8c3,0.6,5,3.5,4.4,6.5
		l-2.8,14.5C1411.2,863.9,1408.3,865.9,1405.3,865.3z"/>
	<path class="st0" d="M911.9,933.7l-7.6,1.3c-3,0.5-5.9-1.5-6.5-4.5l-5.3-30.1c-0.5-3,1.5-5.9,4.5-6.5l7.6-1.3
		c3-0.5,5.9,1.5,6.5,4.5l5.3,30.1C917,930.3,915,933.2,911.9,933.7z"/>
	<circle class="st0" cx="1521.6" cy="1069.9" r="10.9"/>
	<circle class="st0" cx="1073.1" cy="396.4" r="19"/>
	<path class="st0" d="M1554.9,697.4c-3.2-9.9,2.2-20.5,12.1-23.7s20.5,2.2,23.7,12.1"/>
	<path class="st0" d="M1025,1026.3c6.2-8.3,18-10,26.3-3.7c8.3,6.2,10,18,3.7,26.3"/>
	<polygon class="st0" points="1289.7,607.9 1275.1,634.4 1256.2,610.7 1270.8,584.2 	"/>
	<polygon class="st0" points="952,692 984,664 956,649.3 	"/>
	<polygon class="st0" points="1571.3,841.6 1552,879.5 1583.4,882.7 	"/>
	<path class="st1" d="M1384.8,711.9l7.2,9.6c1.2,1.6,3.8,1.2,4.4-0.7l4-11.7c0.6-1.8-1-3.6-2.8-3.3l-11.1,2.1
		C1384.5,708.2,1383.7,710.4,1384.8,711.9z"/>
	<polygon class="st0" points="1287,1053 1258.9,1062.5 1279.2,1086.7 	"/>
	<polyline class="st0" points="1146.7,879.3 1182,879.3 1182,846 	"/>
	<polygon class="st0" points="1478.7,434 1504,434 1504,394 	"/>
	<line class="st0" x1="1457.3" y1="552" x2="1465.3" y2="593.3"/>
	<line class="st0" x1="1238.7" y1="434" x2="1272.9" y2="456.7"/>
	<path class="st1" d="M1154.8,730.7l-7.5-3.1c-1.6-0.7-2.4-2.5-1.7-4.1l3.1-7.5c0.7-1.6,2.5-2.4,4.1-1.7l7.5,3.1
		c1.6,0.7,2.4,2.5,1.7,4.1l-3.1,7.5C1158.3,730.6,1156.4,731.3,1154.8,730.7z"/>
	<path class="st1" d="M1302.7,940.5l-6.8,4.4c-1.4,0.9-3.4,0.5-4.3-0.9l-4.4-6.8c-0.9-1.4-0.5-3.4,0.9-4.3l6.8-4.4
		c1.4-0.9,3.4-0.5,4.3,0.9l4.4,6.8C1304.5,937.6,1304.1,939.5,1302.7,940.5z"/>
	<circle class="st1" cx="1099.6" cy="541.4" r="7.4"/>
	<circle class="st1" cx="842" cy="1086.7" r="7.4"/>
	<line class="st0" x1="1482.7" y1="1012" x2="1457.3" y2="985.3"/>
	<line class="st0" x1="818" y1="616" x2="842" y2="612"/>
	<line class="st0" x1="937.3" y1="377.4" x2="937.3" y2="353.3"/>
	<line class="st0" x1="995.3" y1="835.3" x2="1024.7" y2="809.3"/>
	<path class="st0" d="M1686.9,492.2l-11.7,8.9c-2.4,1.9-5.9,1.4-7.8-1.1l-8.9-11.7c-1.9-2.4-1.4-5.9,1.1-7.8l11.7-8.9
		c2.4-1.9,5.9-1.4,7.8,1.1l8.9,11.7C1689.9,486.9,1689.4,490.4,1686.9,492.2z"/>
	<path class="st0" d="M2220.2,865.3l-14.5-2.8c-3-0.6-5-3.5-4.4-6.5l2.8-14.5c0.6-3,3.5-5,6.5-4.4l14.5,2.8c3,0.6,5,3.5,4.4,6.5
		l-2.8,14.5C2226.2,863.9,2223.3,865.9,2220.2,865.3z"/>
	<path class="st0" d="M1726.9,933.7l-7.6,1.3c-3,0.5-5.9-1.5-6.5-4.5l-5.3-30.1c-0.5-3,1.5-5.9,4.5-6.5l7.6-1.3
		c3-0.5,5.9,1.5,6.5,4.5l5.3,30.1C1732,930.3,1729.9,933.2,1726.9,933.7z"/>
	<circle class="st0" cx="2336.6" cy="1069.9" r="10.9"/>
	<circle class="st0" cx="1888.1" cy="396.4" r="19"/>
	<path class="st0" d="M2369.9,697.4c-3.2-9.9,2.2-20.5,12.1-23.7c9.9-3.2,20.5,2.2,23.7,12.1"/>
	<path class="st0" d="M1840,1026.3c6.2-8.3,18-10,26.3-3.7c8.3,6.2,10,18,3.7,26.3"/>
	<polygon class="st0" points="2104.7,607.9 2090.1,634.4 2071.2,610.7 2085.8,584.2 	"/>
	<polygon class="st0" points="1767,692 1799,664 1771,649.3 	"/>
	<polygon class="st0" points="2386.3,841.6 2367,879.5 2398.4,882.7 	"/>
	<path class="st1" d="M2199.8,711.9l7.2,9.6c1.2,1.6,3.8,1.2,4.4-0.7l4-11.7c0.6-1.8-1-3.6-2.8-3.3l-11.1,2.1
		C2199.5,708.2,2198.7,710.4,2199.8,711.9z"/>
	<polygon class="st0" points="2101.9,1053 2073.9,1062.5 2094.2,1086.7 	"/>
	<polyline class="st0" points="1961.6,879.3 1997,879.3 1997,846 	"/>
	<polygon class="st0" points="2293.6,434 2319,434 2319,394 	"/>
	<line class="st0" x1="2272.3" y1="552" x2="2280.3" y2="593.3"/>
	<line class="st0" x1="2053.6" y1="434" x2="2087.9" y2="456.7"/>
	<path class="st1" d="M1969.8,730.7l-7.5-3.1c-1.6-0.7-2.4-2.5-1.7-4.1l3.1-7.5c0.7-1.6,2.5-2.4,4.1-1.7l7.5,3.1
		c1.6,0.7,2.4,2.5,1.7,4.1l-3.1,7.5C1973.2,730.6,1971.4,731.3,1969.8,730.7z"/>
	<path class="st1" d="M2117.7,940.5l-6.8,4.4c-1.4,0.9-3.4,0.5-4.3-0.9l-4.4-6.8c-0.9-1.4-0.5-3.4,0.9-4.3l6.8-4.4
		c1.4-0.9,3.4-0.5,4.3,0.9l4.4,6.8C2119.5,937.6,2119.1,939.5,2117.7,940.5z"/>
	<circle class="st1" cx="1914.6" cy="541.4" r="7.4"/>
	<circle class="st1" cx="1657" cy="1086.7" r="7.4"/>
	<line class="st0" x1="2297.6" y1="1012" x2="2272.3" y2="985.3"/>
	<line class="st0" x1="1633" y1="616" x2="1657" y2="612"/>
	<line class="st0" x1="1752.3" y1="377.4" x2="1752.3" y2="353.3"/>
	<line class="st0" x1="1810.3" y1="835.3" x2="1839.6" y2="809.3"/>
	<path class="st0" d="M2501.9,492.2l-11.7,8.9c-2.4,1.9-5.9,1.4-7.8-1.1l-8.9-11.7c-1.9-2.4-1.4-5.9,1.1-7.8l11.7-8.9
		c2.4-1.9,5.9-1.4,7.8,1.1l8.9,11.7C2504.8,486.9,2504.4,490.4,2501.9,492.2z"/>
	<path class="st0" d="M3035.2,865.3l-14.5-2.8c-3-0.6-5-3.5-4.4-6.5l2.8-14.5c0.6-3,3.5-5,6.5-4.4l14.5,2.8c3,0.6,5,3.5,4.4,6.5
		l-2.8,14.5C3041.2,863.9,3038.2,865.9,3035.2,865.3z"/>
	<path class="st0" d="M2541.9,933.7l-7.6,1.3c-3,0.5-5.9-1.5-6.5-4.5l-5.3-30.1c-0.5-3,1.5-5.9,4.5-6.5l7.6-1.3
		c3-0.5,5.9,1.5,6.5,4.5l5.3,30.1C2547,930.3,2544.9,933.2,2541.9,933.7z"/>
	<circle class="st0" cx="2703.1" cy="396.4" r="19"/>
	<path class="st0" d="M2655,1026.3c6.2-8.3,18-10,26.3-3.7c8.3,6.2,10,18,3.7,26.3"/>
	<polygon class="st0" points="2919.6,607.9 2905.1,634.4 2886.2,610.7 2900.8,584.2 	"/>
	<polygon class="st0" points="2582,692 2614,664 2586,649.3 	"/>
	<path class="st1" d="M3014.8,711.9l7.2,9.6c1.2,1.6,3.8,1.2,4.4-0.7l4-11.7c0.6-1.8-1-3.6-2.8-3.3l-11.1,2.1
		C3014.5,708.2,3013.6,710.4,3014.8,711.9z"/>
	<polygon class="st0" points="2916.9,1053 2888.9,1062.5 2909.2,1086.7 	"/>
	<polyline class="st0" points="2776.6,879.3 2812,879.3 2812,846 	"/>
	<line class="st0" x1="2868.6" y1="434" x2="2902.9" y2="456.7"/>
	<path class="st1" d="M2784.8,730.7l-7.5-3.1c-1.6-0.7-2.4-2.5-1.7-4.1l3.1-7.5c0.7-1.6,2.5-2.4,4.1-1.7l7.5,3.1
		c1.6,0.7,2.4,2.5,1.7,4.1l-3.1,7.5C2788.2,730.6,2786.4,731.3,2784.8,730.7z"/>
	<path class="st1" d="M2932.6,940.5l-6.8,4.4c-1.4,0.9-3.4,0.5-4.3-0.9l-4.4-6.8c-0.9-1.4-0.5-3.4,0.9-4.3l6.8-4.4
		c1.4-0.9,3.4-0.5,4.3,0.9l4.4,6.8C2934.5,937.6,2934.1,939.5,2932.6,940.5z"/>
	<circle class="st1" cx="2729.6" cy="541.4" r="7.4"/>
	<circle class="st1" cx="2472" cy="1086.7" r="7.4"/>
	<line class="st0" x1="2448" y1="616" x2="2472" y2="612"/>
	<line class="st0" x1="2567.3" y1="377.4" x2="2567.3" y2="353.3"/>
	<line class="st0" x1="2625.3" y1="835.3" x2="2654.6" y2="809.3"/>
	<path class="st0" d="M57,1298.6l-11.7,8.9c-2.4,1.9-5.9,1.4-7.8-1.1l-8.9-11.7c-1.9-2.4-1.4-5.9,1.1-7.8l11.7-8.9
		c2.4-1.9,5.9-1.4,7.8,1.1l8.9,11.7C59.9,1293.2,59.4,1296.7,57,1298.6z"/>
	<path class="st0" d="M590.3,1671.7l-14.5-2.8c-3-0.6-5-3.5-4.4-6.5l2.8-14.5c0.6-3,3.5-5,6.5-4.4l14.5,2.8c3,0.6,5,3.5,4.4,6.5
		l-2.8,14.5C596.2,1670.3,593.3,1672.3,590.3,1671.7z"/>
	<path class="st0" d="M96.9,1740.1l-7.6,1.3c-3,0.5-5.9-1.5-6.5-4.5l-5.3-30.1c-0.5-3,1.5-5.9,4.5-6.5l7.6-1.3
		c3-0.5,5.9,1.5,6.5,4.5l5.3,30.1C102,1736.7,100,1739.5,96.9,1740.1z"/>
	<circle class="st0" cx="706.7" cy="1876.2" r="10.9"/>
	<circle class="st0" cx="258.2" cy="1202.8" r="19"/>
	<path class="st0" d="M739.9,1503.7c-3.2-9.9,2.2-20.5,12.1-23.7c9.9-3.2,20.5,2.2,23.7,12.1"/>
	<path class="st0" d="M210,1832.6c6.2-8.3,18-10,26.3-3.7s10,18,3.7,26.3"/>
	<polygon class="st0" points="474.7,1414.2 460.1,1440.7 441.2,1417.1 455.8,1390.5 	"/>
	<polygon class="st0" points="137,1498.3 169,1470.3 141,1455.7 	"/>
	<polygon class="st0" points="756.3,1647.9 737,1685.8 768.4,1689 	"/>
	<path class="st1" d="M569.8,1518.2l7.2,9.6c1.2,1.6,3.8,1.2,4.4-0.7l4-11.7c0.6-1.8-1-3.6-2.8-3.3l-11.1,2.1
		C569.5,1514.6,568.7,1516.7,569.8,1518.2z"/>
	<polygon class="st0" points="472,1859.3 443.9,1868.8 464.2,1893.1 	"/>
	<polyline class="st0" points="331.7,1685.7 367,1685.7 367,1652.3 	"/>
	<polygon class="st0" points="663.7,1240.3 689,1240.3 689,1200.3 	"/>
	<line class="st0" x1="642.3" y1="1358.3" x2="650.3" y2="1399.7"/>
	<line class="st0" x1="423.7" y1="1240.3" x2="458" y2="1263"/>
	<path class="st1" d="M339.9,1537l-7.5-3.1c-1.6-0.7-2.4-2.5-1.7-4.1l3.1-7.5c0.7-1.6,2.5-2.4,4.1-1.7l7.5,3.1
		c1.6,0.7,2.4,2.5,1.7,4.1l-3.1,7.5C343.3,1536.9,341.5,1537.7,339.9,1537z"/>
	<path class="st1" d="M487.7,1746.8l-6.8,4.4c-1.4,0.9-3.4,0.5-4.3-0.9l-4.4-6.8c-0.9-1.4-0.5-3.4,0.9-4.3l6.8-4.4
		c1.4-0.9,3.4-0.5,4.3,0.9l4.4,6.8C489.5,1743.9,489.1,1745.8,487.7,1746.8z"/>
	<circle class="st1" cx="284.7" cy="1347.8" r="7.4"/>
	<circle class="st1" cx="27" cy="1893.1" r="7.4"/>
	<line class="st0" x1="667.7" y1="1818.3" x2="642.3" y2="1791.7"/>
	<line class="st0" x1="3" y1="1422.3" x2="27" y2="1418.3"/>
	<line class="st0" x1="122.3" y1="1183.7" x2="122.3" y2="1159.7"/>
	<line class="st0" x1="180.3" y1="1641.7" x2="209.7" y2="1615.7"/>
	<path class="st0" d="M872,1298.6l-11.7,8.9c-2.4,1.9-5.9,1.4-7.8-1.1l-8.9-11.7c-1.9-2.4-1.4-5.9,1.1-7.8l11.7-8.9
		c2.4-1.9,5.9-1.4,7.8,1.1l8.9,11.7C874.9,1293.2,874.4,1296.7,872,1298.6z"/>
	<path class="st0" d="M1405.3,1671.7l-14.5-2.8c-3-0.6-5-3.5-4.4-6.5l2.8-14.5c0.6-3,3.5-5,6.5-4.4l14.5,2.8c3,0.6,5,3.5,4.4,6.5
		l-2.8,14.5C1411.2,1670.3,1408.3,1672.3,1405.3,1671.7z"/>
	<path class="st0" d="M911.9,1740.1l-7.6,1.3c-3,0.5-5.9-1.5-6.5-4.5l-5.3-30.1c-0.5-3,1.5-5.9,4.5-6.5l7.6-1.3
		c3-0.5,5.9,1.5,6.5,4.5l5.3,30.1C917,1736.7,915,1739.5,911.9,1740.1z"/>
	<circle class="st0" cx="1521.6" cy="1876.2" r="10.9"/>
	<circle class="st0" cx="1073.1" cy="1202.8" r="19"/>
	<path class="st0" d="M1554.9,1503.7c-3.2-9.9,2.2-20.5,12.1-23.7c9.9-3.2,20.5,2.2,23.7,12.1"/>
	<path class="st0" d="M1025,1832.6c6.2-8.3,18-10,26.3-3.7s10,18,3.7,26.3"/>
	<polygon class="st0" points="1289.7,1414.2 1275.1,1440.7 1256.2,1417.1 1270.8,1390.5 	"/>
	<polygon class="st0" points="952,1498.3 984,1470.3 956,1455.7 	"/>
	<polygon class="st0" points="1571.3,1647.9 1552,1685.8 1583.4,1689 	"/>
	<path class="st1" d="M1384.8,1518.2l7.2,9.6c1.2,1.6,3.8,1.2,4.4-0.7l4-11.7c0.6-1.8-1-3.6-2.8-3.3l-11.1,2.1
		C1384.5,1514.6,1383.7,1516.7,1384.8,1518.2z"/>
	<polygon class="st0" points="1287,1859.3 1258.9,1868.8 1279.2,1893.1 	"/>
	<polyline class="st0" points="1146.7,1685.7 1182,1685.7 1182,1652.3 	"/>
	<polygon class="st0" points="1478.7,1240.3 1504,1240.3 1504,1200.3 	"/>
	<line class="st0" x1="1457.3" y1="1358.3" x2="1465.3" y2="1399.7"/>
	<line class="st0" x1="1238.7" y1="1240.3" x2="1272.9" y2="1263"/>
	<path class="st1" d="M1154.8,1537l-7.5-3.1c-1.6-0.7-2.4-2.5-1.7-4.1l3.1-7.5c0.7-1.6,2.5-2.4,4.1-1.7l7.5,3.1
		c1.6,0.7,2.4,2.5,1.7,4.1l-3.1,7.5C1158.3,1536.9,1156.4,1537.7,1154.8,1537z"/>
	<path class="st1" d="M1302.7,1746.8l-6.8,4.4c-1.4,0.9-3.4,0.5-4.3-0.9l-4.4-6.8c-0.9-1.4-0.5-3.4,0.9-4.3l6.8-4.4
		c1.4-0.9,3.4-0.5,4.3,0.9l4.4,6.8C1304.5,1743.9,1304.1,1745.8,1302.7,1746.8z"/>
	<circle class="st1" cx="1099.6" cy="1347.8" r="7.4"/>
	<circle class="st1" cx="842" cy="1893.1" r="7.4"/>
	<line class="st0" x1="1482.7" y1="1818.3" x2="1457.3" y2="1791.7"/>
	<line class="st0" x1="818" y1="1422.3" x2="842" y2="1418.3"/>
	<line class="st0" x1="937.3" y1="1183.7" x2="937.3" y2="1159.7"/>
	<line class="st0" x1="995.3" y1="1641.7" x2="1024.7" y2="1615.7"/>
	<path class="st0" d="M1686.9,1298.6l-11.7,8.9c-2.4,1.9-5.9,1.4-7.8-1.1l-8.9-11.7c-1.9-2.4-1.4-5.9,1.1-7.8l11.7-8.9
		c2.4-1.9,5.9-1.4,7.8,1.1l8.9,11.7C1689.9,1293.2,1689.4,1296.7,1686.9,1298.6z"/>
	<path class="st0" d="M2220.2,1671.7l-14.5-2.8c-3-0.6-5-3.5-4.4-6.5l2.8-14.5c0.6-3,3.5-5,6.5-4.4l14.5,2.8c3,0.6,5,3.5,4.4,6.5
		l-2.8,14.5C2226.2,1670.3,2223.3,1672.3,2220.2,1671.7z"/>
	<path class="st0" d="M1726.9,1740.1l-7.6,1.3c-3,0.5-5.9-1.5-6.5-4.5l-5.3-30.1c-0.5-3,1.5-5.9,4.5-6.5l7.6-1.3
		c3-0.5,5.9,1.5,6.5,4.5l5.3,30.1C1732,1736.7,1729.9,1739.5,1726.9,1740.1z"/>
	<circle class="st0" cx="2336.6" cy="1876.2" r="10.9"/>
	<circle class="st0" cx="1888.1" cy="1202.8" r="19"/>
	<path class="st0" d="M2369.9,1503.7c-3.2-9.9,2.2-20.5,12.1-23.7c9.9-3.2,20.5,2.2,23.7,12.1"/>
	<path class="st0" d="M1840,1832.6c6.2-8.3,18-10,26.3-3.7s10,18,3.7,26.3"/>
	<polygon class="st0" points="2104.7,1414.2 2090.1,1440.7 2071.2,1417.1 2085.8,1390.5 	"/>
	<polygon class="st0" points="1767,1498.3 1799,1470.3 1771,1455.7 	"/>
	<polygon class="st0" points="2386.3,1647.9 2367,1685.8 2398.4,1689 	"/>
	<path class="st1" d="M2199.8,1518.2l7.2,9.6c1.2,1.6,3.8,1.2,4.4-0.7l4-11.7c0.6-1.8-1-3.6-2.8-3.3l-11.1,2.1
		C2199.5,1514.6,2198.7,1516.7,2199.8,1518.2z"/>
	<polygon class="st0" points="2101.9,1859.3 2073.9,1868.8 2094.2,1893.1 	"/>
	<polyline class="st0" points="1961.6,1685.7 1997,1685.7 1997,1652.3 	"/>
	<polygon class="st0" points="2293.6,1240.3 2319,1240.3 2319,1200.3 	"/>
	<line class="st0" x1="2272.3" y1="1358.3" x2="2280.3" y2="1399.7"/>
	<line class="st0" x1="2053.6" y1="1240.3" x2="2087.9" y2="1263"/>
	<path class="st1" d="M1969.8,1537l-7.5-3.1c-1.6-0.7-2.4-2.5-1.7-4.1l3.1-7.5c0.7-1.6,2.5-2.4,4.1-1.7l7.5,3.1
		c1.6,0.7,2.4,2.5,1.7,4.1l-3.1,7.5C1973.2,1536.9,1971.4,1537.7,1969.8,1537z"/>
	<path class="st1" d="M2117.7,1746.8l-6.8,4.4c-1.4,0.9-3.4,0.5-4.3-0.9l-4.4-6.8c-0.9-1.4-0.5-3.4,0.9-4.3l6.8-4.4
		c1.4-0.9,3.4-0.5,4.3,0.9l4.4,6.8C2119.5,1743.9,2119.1,1745.8,2117.7,1746.8z"/>
	<circle class="st1" cx="1914.6" cy="1347.8" r="7.4"/>
	<circle class="st1" cx="1657" cy="1893.1" r="7.4"/>
	<line class="st0" x1="2297.6" y1="1818.3" x2="2272.3" y2="1791.7"/>
	<line class="st0" x1="1633" y1="1422.3" x2="1657" y2="1418.3"/>
	<line class="st0" x1="1752.3" y1="1183.7" x2="1752.3" y2="1159.7"/>
	<line class="st0" x1="1810.3" y1="1641.7" x2="1839.6" y2="1615.7"/>
	<path class="st0" d="M2501.9,1298.6l-11.7,8.9c-2.4,1.9-5.9,1.4-7.8-1.1l-8.9-11.7c-1.9-2.4-1.4-5.9,1.1-7.8l11.7-8.9
		c2.4-1.9,5.9-1.4,7.8,1.1l8.9,11.7C2504.8,1293.2,2504.4,1296.7,2501.9,1298.6z"/>
	<path class="st0" d="M3035.2,1671.7l-14.5-2.8c-3-0.6-5-3.5-4.4-6.5l2.8-14.5c0.6-3,3.5-5,6.5-4.4l14.5,2.8c3,0.6,5,3.5,4.4,6.5
		l-2.8,14.5C3041.2,1670.3,3038.2,1672.3,3035.2,1671.7z"/>
	<path class="st0" d="M2541.9,1740.1l-7.6,1.3c-3,0.5-5.9-1.5-6.5-4.5l-5.3-30.1c-0.5-3,1.5-5.9,4.5-6.5l7.6-1.3
		c3-0.5,5.9,1.5,6.5,4.5l5.3,30.1C2547,1736.7,2544.9,1739.5,2541.9,1740.1z"/>
	<circle class="st0" cx="2703.1" cy="1202.8" r="19"/>
	<path class="st0" d="M2655,1832.6c6.2-8.3,18-10,26.3-3.7s10,18,3.7,26.3"/>
	<polygon class="st0" points="2919.6,1414.2 2905.1,1440.7 2886.2,1417.1 2900.8,1390.5 	"/>
	<polygon class="st0" points="2582,1498.3 2614,1470.3 2586,1455.7 	"/>
	<path class="st1" d="M3014.8,1518.2l7.2,9.6c1.2,1.6,3.8,1.2,4.4-0.7l4-11.7c0.6-1.8-1-3.6-2.8-3.3l-11.1,2.1
		C3014.5,1514.6,3013.6,1516.7,3014.8,1518.2z"/>
	<polygon class="st0" points="2916.9,1859.3 2888.9,1868.8 2909.2,1893.1 	"/>
	<polyline class="st0" points="2776.6,1685.7 2812,1685.7 2812,1652.3 	"/>
	<line class="st0" x1="2868.6" y1="1240.3" x2="2902.9" y2="1263"/>
	<path class="st1" d="M2784.8,1537l-7.5-3.1c-1.6-0.7-2.4-2.5-1.7-4.1l3.1-7.5c0.7-1.6,2.5-2.4,4.1-1.7l7.5,3.1
		c1.6,0.7,2.4,2.5,1.7,4.1l-3.1,7.5C2788.2,1536.9,2786.4,1537.7,2784.8,1537z"/>
	<path class="st1" d="M2932.6,1746.8l-6.8,4.4c-1.4,0.9-3.4,0.5-4.3-0.9l-4.4-6.8c-0.9-1.4-0.5-3.4,0.9-4.3l6.8-4.4
		c1.4-0.9,3.4-0.5,4.3,0.9l4.4,6.8C2934.5,1743.9,2934.1,1745.8,2932.6,1746.8z"/>
	<circle class="st1" cx="2729.6" cy="1347.8" r="7.4"/>
	<circle class="st1" cx="2472" cy="1893.1" r="7.4"/>
	<line class="st0" x1="2448" y1="1422.3" x2="2472" y2="1418.3"/>
	<line class="st0" x1="2567.3" y1="1183.7" x2="2567.3" y2="1159.7"/>
	<line class="st0" x1="2625.3" y1="1641.7" x2="2654.6" y2="1615.7"/>
</g>
</svg>
