<?xml version="1.0" standalone="no"?>
<!DOCTYPE svg PUBLIC "-//W3C//DTD SVG 20010904//EN"
 "http://www.w3.org/TR/2001/REC-SVG-20010904/DTD/svg10.dtd">
<svg version="1.0" xmlns="http://www.w3.org/2000/svg"
 width="358.000000pt" height="358.000000pt" viewBox="0 0 358.000000 358.000000"
 preserveAspectRatio="xMidYMid meet">
<metadata>
Created by potrace 1.11, written by Peter Selinger 2001-2013
</metadata>
<g transform="translate(0.000000,358.000000) scale(0.100000,-0.100000)"
fill="#000000" stroke="none">
<path d="M1136 2866 c-459 -269 -622 -369 -632 -389 -12 -22 -14 -144 -12
-757 l3 -730 28 -27 c38 -38 96 -38 134 0 l28 27 5 693 5 692 545 317 c299
175 547 318 550 318 3 0 251 -143 550 -318 l545 -317 3 -646 2 -645 -545 -318
c-367 -214 -550 -316 -562 -312 -10 4 -124 68 -253 144 l-235 138 -2 644 -3
645 242 140 c133 77 249 140 258 140 9 0 125 -63 258 -140 l242 -140 -3 -295
-2 -294 -190 -112 c-104 -62 -193 -113 -197 -113 -5 -1 -8 78 -8 174 0 174 0
175 25 191 32 21 75 109 75 155 0 21 -12 60 -28 90 -22 43 -38 59 -81 81 -68
36 -114 36 -182 0 -43 -22 -59 -38 -81 -81 -16 -30 -28 -69 -28 -90 0 -46 43
-134 75 -155 l25 -16 0 -283 c0 -252 2 -284 18 -303 35 -44 98 -57 138 -30 11
8 153 92 315 186 162 94 302 181 311 193 16 20 18 57 18 399 0 267 -3 385 -12
403 -6 14 -25 34 -42 44 -319 189 -627 361 -647 361 -35 0 -668 -371 -685
-401 -20 -37 -20 -1458 0 -1497 10 -20 97 -75 318 -203 365 -213 344 -202 377
-197 37 6 1231 703 1264 739 l27 29 0 726 c0 604 -2 730 -14 752 -21 40 -1243
752 -1289 751 -23 0 -200 -99 -651 -363z"/>
</g>
</svg>
